<svg xmlns="http://www.w3.org/2000/svg" xmlns:xlink="http://www.w3.org/1999/xlink" width="180" zoomAndPan="magnify" viewBox="0 0 135 304.499991" height="406" preserveAspectRatio="xMidYMid meet" version="1.0"><defs><clipPath id="60e6c55949"><path d="M 0.109375 2 L 16 2 L 16 18 L 0.109375 18 Z M 0.109375 2 " clip-rule="nonzero"/></clipPath><clipPath id="94c8f5f795"><path d="M 0.109375 6.46875 L 3.171875 6.46875 L 3.171875 15.835938 L 0.109375 15.835938 Z M 0.109375 6.46875 " clip-rule="nonzero"/></clipPath><clipPath id="a574632ef4"><path d="M 0.109375 9.398438 L 3.160156 6.46875 L 3.160156 15.835938 L 0.109375 15.835938 Z M 0.109375 9.398438 " clip-rule="nonzero"/></clipPath><clipPath id="a23d3853d8"><path d="M 0.109375 0.46875 L 3.171875 0.46875 L 3.171875 9.835938 L 0.109375 9.835938 Z M 0.109375 0.46875 " clip-rule="nonzero"/></clipPath><clipPath id="62f2e15962"><path d="M 0.109375 3.398438 L 3.160156 0.46875 L 3.160156 9.835938 L 0.109375 9.835938 Z M 0.109375 3.398438 " clip-rule="nonzero"/></clipPath><clipPath id="f2698d9526"><rect x="0" width="4" y="0" height="10"/></clipPath><clipPath id="30820ac06f"><path d="M 6.09375 0.535156 L 9.171875 0.535156 L 9.171875 11.753906 L 6.09375 11.753906 Z M 6.09375 0.535156 " clip-rule="nonzero"/></clipPath><clipPath id="b51d9ebd57"><path d="M 6.09375 8.769531 L 6.09375 3.546875 L 9.160156 0.535156 L 9.160156 11.75 Z M 6.09375 8.769531 " clip-rule="nonzero"/></clipPath><clipPath id="05093bfab8"><path d="M 0.09375 0.535156 L 3.171875 0.535156 L 3.171875 11.753906 L 0.09375 11.753906 Z M 0.09375 0.535156 " clip-rule="nonzero"/></clipPath><clipPath id="502266213a"><path d="M 0.09375 8.769531 L 0.09375 3.546875 L 3.160156 0.535156 L 3.160156 11.75 Z M 0.09375 8.769531 " clip-rule="nonzero"/></clipPath><clipPath id="b666599d41"><rect x="0" width="4" y="0" height="12"/></clipPath><clipPath id="f0546b008a"><path d="M 6.09375 12.738281 L 9.171875 12.738281 L 9.171875 15.839844 L 6.09375 15.839844 Z M 6.09375 12.738281 " clip-rule="nonzero"/></clipPath><clipPath id="94ae6ee6b2"><path d="M 6.09375 12.738281 L 6.09375 15.835938 L 9.160156 15.835938 Z M 6.09375 12.738281 " clip-rule="nonzero"/></clipPath><clipPath id="2fa6e48f00"><path d="M 0.09375 0.738281 L 3.171875 0.738281 L 3.171875 3.839844 L 0.09375 3.839844 Z M 0.09375 0.738281 " clip-rule="nonzero"/></clipPath><clipPath id="58bb47b815"><path d="M 0.09375 0.738281 L 0.09375 3.835938 L 3.160156 3.835938 Z M 0.09375 0.738281 " clip-rule="nonzero"/></clipPath><clipPath id="f42f71b7a5"><rect x="0" width="4" y="0" height="4"/></clipPath><clipPath id="ae82253964"><path d="M 12.050781 3.210938 L 15.117188 3.210938 L 15.117188 15.84375 L 12.050781 15.84375 Z M 12.050781 3.210938 " clip-rule="nonzero"/></clipPath><clipPath id="4931339aaf"><path d="M 15.105469 6.140625 L 12.050781 3.210938 L 12.050781 15.835938 L 15.105469 15.835938 Z M 15.105469 6.140625 " clip-rule="nonzero"/></clipPath><clipPath id="fb88d649b6"><path d="M 0.0507812 0.210938 L 3.117188 0.210938 L 3.117188 12.84375 L 0.0507812 12.84375 Z M 0.0507812 0.210938 " clip-rule="nonzero"/></clipPath><clipPath id="99674df462"><path d="M 3.105469 3.140625 L 0.0507812 0.210938 L 0.0507812 12.835938 L 3.105469 12.835938 Z M 3.105469 3.140625 " clip-rule="nonzero"/></clipPath><clipPath id="719439c51d"><rect x="0" width="4" y="0" height="13"/></clipPath><clipPath id="69a0accf18"><rect x="0" width="16" y="0" height="16"/></clipPath><clipPath id="7fd9ce26d0"><path d="M 0.523438 1.273438 L 8.441406 1.273438 L 8.441406 15.570312 L 0.523438 15.570312 Z M 0.523438 1.273438 " clip-rule="nonzero"/></clipPath><clipPath id="af3f5a17cc"><path d="M 0.523438 15.550781 L 0.523438 1.273438 L 4.082031 1.273438 C 4.421875 2.835938 5.496094 8.453125 5.582031 9.054688 L 5.730469 9.054688 C 5.496094 6.800781 5.214844 3.113281 5.214844 1.785156 L 5.214844 1.273438 L 8.410156 1.273438 L 8.410156 15.550781 L 4.574219 15.550781 C 4.402344 14.328125 3.394531 7.746094 3.332031 7.273438 L 3.160156 7.273438 C 3.265625 8.859375 3.542969 13.554688 3.542969 15.207031 L 3.542969 15.546875 Z M 0.523438 15.550781 " clip-rule="nonzero"/></clipPath><clipPath id="82fdd7659f"><path d="M 0.523438 0.273438 L 8.441406 0.273438 L 8.441406 14.570312 L 0.523438 14.570312 Z M 0.523438 0.273438 " clip-rule="nonzero"/></clipPath><clipPath id="f5e1360769"><path d="M 0.523438 14.550781 L 0.523438 0.273438 L 4.082031 0.273438 C 4.421875 1.835938 5.496094 7.453125 5.582031 8.054688 L 5.730469 8.054688 C 5.496094 5.800781 5.214844 2.113281 5.214844 0.785156 L 5.214844 0.273438 L 8.410156 0.273438 L 8.410156 14.550781 L 4.574219 14.550781 C 4.402344 13.328125 3.394531 6.746094 3.332031 6.273438 L 3.160156 6.273438 C 3.265625 7.859375 3.542969 12.554688 3.542969 14.207031 L 3.542969 14.546875 Z M 0.523438 14.550781 " clip-rule="nonzero"/></clipPath><clipPath id="29f494c121"><rect x="0" width="9" y="0" height="15"/></clipPath><clipPath id="931eefdd4e"><path d="M 9.613281 3.824219 L 17.488281 3.824219 L 17.488281 15.746094 L 9.613281 15.746094 Z M 9.613281 3.824219 " clip-rule="nonzero"/></clipPath><clipPath id="fd9ae0a094"><path d="M 13.019531 7.210938 L 13.019531 12.246094 C 13.019531 12.828125 13.167969 13.105469 13.535156 13.105469 C 13.964844 13.105469 14.050781 12.742188 14.050781 12.246094 L 14.050781 7.1875 C 14.050781 6.714844 13.941406 6.394531 13.535156 6.394531 C 13.148438 6.394531 13.019531 6.738281 13.019531 7.210938 M 17.457031 7.617188 L 17.457031 11.96875 C 17.457031 14.671875 15.871094 15.742188 13.472656 15.742188 C 11.113281 15.742188 9.613281 14.671875 9.613281 11.96875 L 9.613281 7.511719 C 9.613281 4.917969 11.304688 3.824219 13.46875 3.824219 C 15.785156 3.824219 17.457031 4.808594 17.457031 7.617188 " clip-rule="nonzero"/></clipPath><clipPath id="17e5c1fdda"><path d="M 0.613281 0.824219 L 8.488281 0.824219 L 8.488281 12.746094 L 0.613281 12.746094 Z M 0.613281 0.824219 " clip-rule="nonzero"/></clipPath><clipPath id="17e3fee076"><path d="M 4.019531 4.210938 L 4.019531 9.246094 C 4.019531 9.828125 4.167969 10.105469 4.535156 10.105469 C 4.964844 10.105469 5.050781 9.742188 5.050781 9.246094 L 5.050781 4.1875 C 5.050781 3.714844 4.941406 3.394531 4.535156 3.394531 C 4.148438 3.394531 4.019531 3.738281 4.019531 4.210938 M 8.457031 4.617188 L 8.457031 8.96875 C 8.457031 11.671875 6.871094 12.742188 4.472656 12.742188 C 2.113281 12.742188 0.613281 11.671875 0.613281 8.96875 L 0.613281 4.511719 C 0.613281 1.917969 2.304688 0.824219 4.46875 0.824219 C 6.785156 0.824219 8.457031 1.808594 8.457031 4.617188 " clip-rule="nonzero"/></clipPath><clipPath id="3542f11bf8"><rect x="0" width="9" y="0" height="13"/></clipPath><clipPath id="cefe1a6983"><path d="M 18.496094 3.789062 L 24.058594 3.789062 L 24.058594 15.570312 L 18.496094 15.570312 Z M 18.496094 3.789062 " clip-rule="nonzero"/></clipPath><clipPath id="77d06adfa8"><path d="M 18.574219 7.9375 C 18.574219 5.882812 18.550781 4.59375 18.53125 3.992188 L 21.808594 3.992188 C 21.851562 4.292969 21.917969 5 21.917969 5.429688 C 22.238281 4.53125 22.988281 3.84375 24.039062 3.824219 L 24.039062 7.789062 C 22.558594 7.789062 21.980469 8.132812 21.980469 9.226562 L 21.980469 15.550781 L 18.574219 15.550781 Z M 18.574219 7.9375 " clip-rule="nonzero"/></clipPath><clipPath id="2a2c744140"><path d="M 0.496094 0.789062 L 6.058594 0.789062 L 6.058594 12.570312 L 0.496094 12.570312 Z M 0.496094 0.789062 " clip-rule="nonzero"/></clipPath><clipPath id="1a4a9e1195"><path d="M 0.574219 4.9375 C 0.574219 2.882812 0.550781 1.59375 0.53125 0.992188 L 3.808594 0.992188 C 3.851562 1.292969 3.917969 2 3.917969 2.429688 C 4.238281 1.53125 4.988281 0.84375 6.039062 0.824219 L 6.039062 4.789062 C 4.558594 4.789062 3.980469 5.132812 3.980469 6.226562 L 3.980469 12.550781 L 0.574219 12.550781 Z M 0.574219 4.9375 " clip-rule="nonzero"/></clipPath><clipPath id="d3c7fca013"><rect x="0" width="7" y="0" height="13"/></clipPath><clipPath id="7160f74f74"><path d="M 24.886719 0.59375 L 32.820312 0.59375 L 32.820312 15.746094 L 24.886719 15.746094 Z M 24.886719 0.59375 " clip-rule="nonzero"/></clipPath><clipPath id="7ee2b88f36"><path d="M 28.304688 7.511719 L 28.304688 12.097656 C 28.304688 12.589844 28.453125 12.914062 28.820312 12.914062 C 29.140625 12.914062 29.332031 12.613281 29.332031 12.078125 L 29.332031 7.511719 C 29.332031 6.867188 29.207031 6.652344 28.820312 6.652344 C 28.496094 6.652344 28.304688 6.867188 28.304688 7.511719 M 32.742188 0.628906 L 32.742188 12.375 C 32.742188 13.621094 32.761719 14.96875 32.785156 15.550781 L 29.589844 15.550781 C 29.546875 15.269531 29.503906 14.925781 29.484375 14.5625 C 28.90625 15.484375 28.242188 15.742188 27.273438 15.742188 C 25.925781 15.742188 24.894531 14.800781 24.894531 12.484375 L 24.894531 7.210938 C 24.894531 5.429688 25.472656 3.824219 27.511719 3.824219 C 28.304688 3.824219 29.035156 4.101562 29.332031 4.679688 L 29.332031 0.628906 Z M 32.742188 0.628906 " clip-rule="nonzero"/></clipPath><clipPath id="b0c1132ed4"><path d="M 0.886719 0.59375 L 8.820312 0.59375 L 8.820312 15.746094 L 0.886719 15.746094 Z M 0.886719 0.59375 " clip-rule="nonzero"/></clipPath><clipPath id="6ff06271f3"><path d="M 4.304688 7.511719 L 4.304688 12.097656 C 4.304688 12.589844 4.453125 12.914062 4.820312 12.914062 C 5.140625 12.914062 5.332031 12.613281 5.332031 12.078125 L 5.332031 7.511719 C 5.332031 6.867188 5.207031 6.652344 4.820312 6.652344 C 4.496094 6.652344 4.304688 6.867188 4.304688 7.511719 M 8.742188 0.628906 L 8.742188 12.375 C 8.742188 13.621094 8.761719 14.96875 8.785156 15.550781 L 5.589844 15.550781 C 5.546875 15.269531 5.503906 14.925781 5.484375 14.5625 C 4.90625 15.484375 4.242188 15.742188 3.273438 15.742188 C 1.925781 15.742188 0.894531 14.800781 0.894531 12.484375 L 0.894531 7.210938 C 0.894531 5.429688 1.472656 3.824219 3.511719 3.824219 C 4.304688 3.824219 5.035156 4.101562 5.332031 4.679688 L 5.332031 0.628906 Z M 8.742188 0.628906 " clip-rule="nonzero"/></clipPath><clipPath id="e3f5757249"><rect x="0" width="9" y="0" height="16"/></clipPath><clipPath id="5599f4043a"><path d="M 33.820312 3.808594 L 41.625 3.808594 L 41.625 15.78125 L 33.820312 15.78125 Z M 33.820312 3.808594 " clip-rule="nonzero"/></clipPath><clipPath id="48ed8d99a5"><path d="M 38.292969 8.429688 L 38.292969 7.253906 C 38.292969 6.675781 38.230469 6.332031 37.800781 6.332031 C 37.457031 6.332031 37.308594 6.652344 37.308594 7.253906 L 37.308594 8.429688 Z M 37.308594 10.554688 L 37.308594 12.3125 C 37.308594 12.914062 37.4375 13.148438 37.78125 13.148438 C 38.144531 13.148438 38.316406 12.957031 38.316406 12.246094 L 38.316406 11.605469 L 41.597656 11.605469 L 41.597656 11.96875 C 41.597656 14.175781 40.71875 15.742188 37.695312 15.742188 C 34.929688 15.742188 33.855469 14.414062 33.855469 11.96875 L 33.855469 7.574219 C 33.855469 5.023438 35.464844 3.824219 37.757812 3.824219 C 40.007812 3.824219 41.617188 4.894531 41.617188 7.574219 L 41.617188 10.554688 Z M 37.308594 10.554688 " clip-rule="nonzero"/></clipPath><clipPath id="06dd817aec"><path d="M 0.820312 0.808594 L 8.625 0.808594 L 8.625 12.78125 L 0.820312 12.78125 Z M 0.820312 0.808594 " clip-rule="nonzero"/></clipPath><clipPath id="db88b6e591"><path d="M 5.292969 5.429688 L 5.292969 4.253906 C 5.292969 3.675781 5.230469 3.332031 4.800781 3.332031 C 4.457031 3.332031 4.308594 3.652344 4.308594 4.253906 L 4.308594 5.429688 Z M 4.308594 7.554688 L 4.308594 9.3125 C 4.308594 9.914062 4.4375 10.148438 4.78125 10.148438 C 5.144531 10.148438 5.316406 9.957031 5.316406 9.246094 L 5.316406 8.605469 L 8.597656 8.605469 L 8.597656 8.96875 C 8.597656 11.175781 7.71875 12.742188 4.695312 12.742188 C 1.929688 12.742188 0.855469 11.414062 0.855469 8.96875 L 0.855469 4.574219 C 0.855469 2.023438 2.464844 0.824219 4.757812 0.824219 C 7.007812 0.824219 8.617188 1.894531 8.617188 4.574219 L 8.617188 7.554688 Z M 4.308594 7.554688 " clip-rule="nonzero"/></clipPath><clipPath id="86ccb5a3b3"><rect x="0" width="9" y="0" height="13"/></clipPath><clipPath id="6f0c3b1888"><path d="M 42.445312 3.808594 L 49.839844 3.808594 L 49.839844 15.78125 L 42.445312 15.78125 Z M 42.445312 3.808594 " clip-rule="nonzero"/></clipPath><clipPath id="bf92c5ba12"><path d="M 45.519531 11.667969 L 45.519531 12.226562 C 45.519531 12.933594 45.648438 13.296875 46.011719 13.296875 C 46.226562 13.296875 46.398438 13.125 46.398438 12.632812 C 46.398438 12.035156 46.289062 11.734375 45.027344 10.941406 C 43.074219 9.71875 42.539062 8.902344 42.539062 7.210938 C 42.539062 4.9375 43.78125 3.824219 46.097656 3.824219 C 49.3125 3.824219 49.636719 5.667969 49.636719 7.144531 L 49.636719 7.722656 L 46.675781 7.722656 L 46.675781 7.082031 C 46.675781 6.394531 46.589844 6.160156 46.25 6.160156 C 45.96875 6.160156 45.820312 6.351562 45.820312 6.867188 C 45.820312 7.339844 46.121094 7.617188 47.0625 8.175781 C 49.25 9.484375 49.804688 10.597656 49.804688 12.011719 C 49.804688 14.304688 49.078125 15.742188 46.097656 15.742188 C 42.667969 15.742188 42.476562 13.621094 42.476562 11.949219 L 42.476562 11.667969 Z M 45.519531 11.667969 " clip-rule="nonzero"/></clipPath><clipPath id="e29abc9b40"><path d="M 0.445312 0.808594 L 7.839844 0.808594 L 7.839844 12.78125 L 0.445312 12.78125 Z M 0.445312 0.808594 " clip-rule="nonzero"/></clipPath><clipPath id="c752494a63"><path d="M 3.519531 8.667969 L 3.519531 9.226562 C 3.519531 9.933594 3.648438 10.296875 4.011719 10.296875 C 4.226562 10.296875 4.398438 10.125 4.398438 9.632812 C 4.398438 9.035156 4.289062 8.734375 3.027344 7.941406 C 1.074219 6.71875 0.539062 5.902344 0.539062 4.210938 C 0.539062 1.9375 1.78125 0.824219 4.097656 0.824219 C 7.3125 0.824219 7.636719 2.667969 7.636719 4.144531 L 7.636719 4.722656 L 4.675781 4.722656 L 4.675781 4.082031 C 4.675781 3.394531 4.589844 3.160156 4.25 3.160156 C 3.96875 3.160156 3.820312 3.351562 3.820312 3.867188 C 3.820312 4.339844 4.121094 4.617188 5.0625 5.175781 C 7.25 6.484375 7.804688 7.597656 7.804688 9.011719 C 7.804688 11.304688 7.078125 12.742188 4.097656 12.742188 C 0.667969 12.742188 0.476562 10.621094 0.476562 8.949219 L 0.476562 8.667969 Z M 3.519531 8.667969 " clip-rule="nonzero"/></clipPath><clipPath id="e96644727c"><rect x="0" width="8" y="0" height="13"/></clipPath><clipPath id="453c15e254"><path d="M 50.371094 1.578125 L 55.945312 1.578125 L 55.945312 15.664062 L 50.371094 15.664062 Z M 50.371094 1.578125 " clip-rule="nonzero"/></clipPath><clipPath id="0d411a0898"><path d="M 50.386719 3.996094 L 51.4375 3.996094 L 51.4375 1.613281 L 54.78125 1.613281 L 54.78125 3.996094 L 55.9375 3.996094 L 55.9375 7.039062 L 54.78125 7.039062 L 54.78125 12.035156 C 54.78125 12.546875 54.867188 12.71875 55.445312 12.71875 C 55.511719 12.71875 55.660156 12.71875 55.789062 12.699219 L 55.789062 15.441406 C 55.144531 15.632812 54.246094 15.65625 53.859375 15.65625 C 51.84375 15.65625 51.351562 14.796875 51.351562 12.871094 L 51.351562 7.039062 L 50.386719 7.039062 Z M 50.386719 3.996094 " clip-rule="nonzero"/></clipPath><clipPath id="a65d779808"><path d="M 0.371094 0.59375 L 5.945312 0.59375 L 5.945312 14.664062 L 0.371094 14.664062 Z M 0.371094 0.59375 " clip-rule="nonzero"/></clipPath><clipPath id="82c7965a87"><path d="M 0.386719 2.996094 L 1.4375 2.996094 L 1.4375 0.613281 L 4.78125 0.613281 L 4.78125 2.996094 L 5.9375 2.996094 L 5.9375 6.039062 L 4.78125 6.039062 L 4.78125 11.035156 C 4.78125 11.546875 4.867188 11.71875 5.445312 11.71875 C 5.511719 11.71875 5.660156 11.71875 5.789062 11.699219 L 5.789062 14.441406 C 5.144531 14.632812 4.246094 14.65625 3.859375 14.65625 C 1.84375 14.65625 1.351562 13.796875 1.351562 11.871094 L 1.351562 6.039062 L 0.386719 6.039062 Z M 0.386719 2.996094 " clip-rule="nonzero"/></clipPath><clipPath id="e44513ebe2"><rect x="0" width="6" y="0" height="15"/></clipPath><clipPath id="a9c23bfbec"><path d="M 56.648438 3.808594 L 64.453125 3.808594 L 64.453125 15.78125 L 56.648438 15.78125 Z M 56.648438 3.808594 " clip-rule="nonzero"/></clipPath><clipPath id="e2d892d127"><path d="M 61.125 8.429688 L 61.125 7.253906 C 61.125 6.675781 61.0625 6.332031 60.632812 6.332031 C 60.289062 6.332031 60.140625 6.652344 60.140625 7.253906 L 60.140625 8.429688 Z M 60.140625 10.554688 L 60.140625 12.3125 C 60.140625 12.910156 60.269531 13.148438 60.613281 13.148438 C 60.976562 13.148438 61.148438 12.953125 61.148438 12.246094 L 61.148438 11.605469 L 64.425781 11.605469 L 64.425781 11.96875 C 64.425781 14.175781 63.546875 15.742188 60.527344 15.742188 C 57.761719 15.742188 56.6875 14.414062 56.6875 11.96875 L 56.6875 7.574219 C 56.6875 5.023438 58.296875 3.820312 60.589844 3.820312 C 62.839844 3.820312 64.449219 4.894531 64.449219 7.574219 L 64.449219 10.554688 Z M 60.140625 10.554688 " clip-rule="nonzero"/></clipPath><clipPath id="f54567270e"><path d="M 0.667969 0.808594 L 8.453125 0.808594 L 8.453125 12.78125 L 0.667969 12.78125 Z M 0.667969 0.808594 " clip-rule="nonzero"/></clipPath><clipPath id="a580b7f768"><path d="M 5.125 5.429688 L 5.125 4.253906 C 5.125 3.675781 5.0625 3.332031 4.632812 3.332031 C 4.289062 3.332031 4.140625 3.652344 4.140625 4.253906 L 4.140625 5.429688 Z M 4.140625 7.554688 L 4.140625 9.3125 C 4.140625 9.910156 4.269531 10.148438 4.613281 10.148438 C 4.976562 10.148438 5.148438 9.953125 5.148438 9.246094 L 5.148438 8.605469 L 8.425781 8.605469 L 8.425781 8.96875 C 8.425781 11.175781 7.546875 12.742188 4.527344 12.742188 C 1.761719 12.742188 0.6875 11.414062 0.6875 8.96875 L 0.6875 4.574219 C 0.6875 2.023438 2.296875 0.820312 4.589844 0.820312 C 6.839844 0.820312 8.449219 1.894531 8.449219 4.574219 L 8.449219 7.554688 Z M 4.140625 7.554688 " clip-rule="nonzero"/></clipPath><clipPath id="42c680e5d6"><rect x="0" width="9" y="0" height="13"/></clipPath><clipPath id="a3b042f388"><rect x="0" width="66" y="0" height="17"/></clipPath></defs><g clip-path="url(#60e6c55949)"><g transform="matrix(1, 0, 0, 1, 0.000000000000000014, 2)"><g clip-path="url(#69a0accf18)"><g clip-path="url(#94c8f5f795)"><g clip-path="url(#a574632ef4)"><g transform="matrix(1, 0, 0, 1, 0.000000000000000014, 6)"><g clip-path="url(#f2698d9526)"><g clip-path="url(#a23d3853d8)"><g clip-path="url(#62f2e15962)"><path fill="#f08025" d="M 0.109375 0.46875 L 3.160156 0.46875 L 3.160156 9.835938 L 0.109375 9.835938 Z M 0.109375 0.46875 " fill-opacity="1" fill-rule="nonzero"/></g></g></g></g></g></g><g clip-path="url(#30820ac06f)"><g clip-path="url(#b51d9ebd57)"><g transform="matrix(1, 0, 0, 1, 6, -0.000000000000000444)"><g clip-path="url(#b666599d41)"><g clip-path="url(#05093bfab8)"><g clip-path="url(#502266213a)"><path fill="#f08025" d="M 0.09375 0.535156 L 3.160156 0.535156 L 3.160156 11.753906 L 0.09375 11.753906 Z M 0.09375 0.535156 " fill-opacity="1" fill-rule="nonzero"/></g></g></g></g></g></g><g clip-path="url(#f0546b008a)"><g clip-path="url(#94ae6ee6b2)"><g transform="matrix(1, 0, 0, 1, 6, 12)"><g clip-path="url(#f42f71b7a5)"><g clip-path="url(#2fa6e48f00)"><g clip-path="url(#58bb47b815)"><path fill="#f08025" d="M 0.09375 0.738281 L 3.160156 0.738281 L 3.160156 3.839844 L 0.09375 3.839844 Z M 0.09375 0.738281 " fill-opacity="1" fill-rule="nonzero"/></g></g></g></g></g></g><g clip-path="url(#ae82253964)"><g clip-path="url(#4931339aaf)"><g transform="matrix(1, 0, 0, 1, 12, 3)"><g clip-path="url(#719439c51d)"><g clip-path="url(#fb88d649b6)"><g clip-path="url(#99674df462)"><path fill="#f08025" d="M 0.0507812 0.210938 L 3.105469 0.210938 L 3.105469 12.832031 L 0.0507812 12.832031 Z M 0.0507812 0.210938 " fill-opacity="1" fill-rule="nonzero"/></g></g></g></g></g></g></g></g></g><g transform="matrix(1, 0, 0, 1, 17, 2)"><g clip-path="url(#a3b042f388)"><g clip-path="url(#7fd9ce26d0)"><g clip-path="url(#af3f5a17cc)"><g transform="matrix(1, 0, 0, 1, -0.000000000000003553, 1)"><g clip-path="url(#29f494c121)"><g clip-path="url(#82fdd7659f)"><g clip-path="url(#f5e1360769)"><path fill="#ffffff" d="M 0.523438 0.273438 L 8.410156 0.273438 L 8.410156 14.539062 L 0.523438 14.539062 Z M 0.523438 0.273438 " fill-opacity="1" fill-rule="nonzero"/></g></g></g></g></g></g><g clip-path="url(#931eefdd4e)"><g clip-path="url(#fd9ae0a094)"><g transform="matrix(1, 0, 0, 1, 9, 3)"><g clip-path="url(#3542f11bf8)"><g clip-path="url(#17e5c1fdda)"><g clip-path="url(#17e3fee076)"><path fill="#ffffff" d="M 0.613281 0.824219 L 8.457031 0.824219 L 8.457031 12.746094 L 0.613281 12.746094 Z M 0.613281 0.824219 " fill-opacity="1" fill-rule="nonzero"/></g></g></g></g></g></g><g clip-path="url(#cefe1a6983)"><g clip-path="url(#77d06adfa8)"><g transform="matrix(1, 0, 0, 1, 18, 3)"><g clip-path="url(#d3c7fca013)"><g clip-path="url(#2a2c744140)"><g clip-path="url(#1a4a9e1195)"><path fill="#ffffff" d="M 0.0820312 -2.820312 L 15.234375 -2.820312 L 15.234375 13.160156 L 0.0820312 13.160156 Z M 0.0820312 -2.820312 " fill-opacity="1" fill-rule="nonzero"/></g></g></g></g></g></g><g clip-path="url(#7160f74f74)"><g clip-path="url(#7ee2b88f36)"><g transform="matrix(1, 0, 0, 1, 24, -0.000000000000000444)"><g clip-path="url(#e3f5757249)"><g clip-path="url(#b0c1132ed4)"><g clip-path="url(#6ff06271f3)"><path fill="#ffffff" d="M -5.917969 0.179688 L 9.234375 0.179688 L 9.234375 16.160156 L -5.917969 16.160156 Z M -5.917969 0.179688 " fill-opacity="1" fill-rule="nonzero"/></g></g></g></g></g></g><g clip-path="url(#5599f4043a)"><g clip-path="url(#48ed8d99a5)"><g transform="matrix(1, 0, 0, 1, 33, 3)"><g clip-path="url(#86ccb5a3b3)"><g clip-path="url(#06dd817aec)"><g clip-path="url(#db88b6e591)"><path fill="#ffffff" d="M 0.410156 -1.832031 L 31.925781 -1.832031 L 31.925781 13.191406 L 0.410156 13.191406 Z M 0.410156 -1.832031 " fill-opacity="1" fill-rule="nonzero"/></g></g></g></g></g></g><g clip-path="url(#6f0c3b1888)"><g clip-path="url(#bf92c5ba12)"><g transform="matrix(1, 0, 0, 1, 42, 3)"><g clip-path="url(#e96644727c)"><g clip-path="url(#e29abc9b40)"><g clip-path="url(#c752494a63)"><rect x="-108.14" width="233.28" fill="#ffffff" y="-115.837997" height="526.175984" fill-opacity="1"/></g></g></g></g></g></g><g clip-path="url(#453c15e254)"><g clip-path="url(#0d411a0898)"><g transform="matrix(1, 0, 0, 1, 50, 1)"><g clip-path="url(#e44513ebe2)"><g clip-path="url(#a65d779808)"><g clip-path="url(#82c7965a87)"><path fill="#ffffff" d="M -16.589844 0.167969 L 14.925781 0.167969 L 14.925781 15.191406 L -16.589844 15.191406 Z M -16.589844 0.167969 " fill-opacity="1" fill-rule="nonzero"/></g></g></g></g></g></g><g clip-path="url(#a9c23bfbec)"><g clip-path="url(#e2d892d127)"><g transform="matrix(1, 0, 0, 1, 56, 3)"><g clip-path="url(#42c680e5d6)"><g clip-path="url(#f54567270e)"><g clip-path="url(#a580b7f768)"><path fill="#ffffff" d="M -22.589844 -1.832031 L 8.925781 -1.832031 L 8.925781 13.191406 L -22.589844 13.191406 Z M -22.589844 -1.832031 " fill-opacity="1" fill-rule="nonzero"/></g></g></g></g></g></g></g></g></svg>