<?xml version="1.0" encoding="utf-8"?>
<!-- Generator: Adobe Illustrator 25.2.3, SVG Export Plug-In . SVG Version: 6.00 Build 0)  -->
<svg version="1.1" id="svg" xmlns="http://www.w3.org/2000/svg" xmlns:xlink="http://www.w3.org/1999/xlink" x="0px" y="0px"
	 viewBox="0 0 180 405.5" style="enable-background:new 0 0 180 405.5;" xml:space="preserve">
<style type="text/css">
	.st0{fill:#FFFFFF;}
	.st1{fill:#E7363D;}
	.st2{fill:#5F5F5E;}
	.st3{fill:#BF1818;}
	.st4{fill:#66B65F;}
	.st5{fill-rule:evenodd;clip-rule:evenodd;fill:#66B65F;}
	.st6{fill-rule:evenodd;clip-rule:evenodd;fill:#5F5F5E;}
	.st7{fill:#020203;}
</style>
<path class="st0" d="M157.9,194.1c-0.2-1-0.8-1.9-1.4-2.9c-0.2-0.5-0.5-0.9-0.7-1.3c-0.8-1.6-0.8-2.8-0.8-3.9c0-0.8,0-1.6-0.3-2.5
	c-0.6-1.7-1.5-2.8-3.1-3.7c-0.3-0.2-0.6-0.3-0.9-0.4v-0.3c0-1.2-1-2.1-2.1-2.1s-2,0.9-2,2.1v0.3c-0.4,0.1-0.7,0.2-1,0.4
	c-1.5,0.9-2.5,2.1-3.1,3.7c-0.3,0.9-0.3,1.7-0.3,2.5c0,1.1,0,2.3-0.8,3.8c-0.2,0.5-0.5,0.9-0.7,1.3c-0.6,1-1.2,2-1.4,2.9
	c-0.2,1,0,1.5,0.3,1.8c0.3,0.4,0.7,0.6,1.3,0.6h5c0,1.4,1.2,2.6,2.8,2.6s2.8-1.2,2.8-2.6h5.1c0.5,0,1-0.2,1.2-0.5
	C157.9,195.6,158.1,195.1,157.9,194.1L157.9,194.1z M147.3,179.1c0-0.6,0.5-1.2,1.2-1.2c0.6,0,1.2,0.5,1.2,1.2v0.1
	c-0.8-0.1-1.7-0.1-2.5,0v-0.1H147.3z M148.5,198.2c-1,0-1.9-0.8-1.9-1.8h3.9C150.4,197.4,149.5,198.2,148.5,198.2z M157.1,195.3
	c-0.2,0.3-0.5,0.3-0.7,0.3h-15.7c-0.2,0-0.5-0.1-0.7-0.3s-0.2-0.6-0.1-1.1c0.2-0.9,0.7-1.8,1.3-2.7c0.2-0.4,0.5-0.9,0.7-1.3
	c0.9-1.7,0.9-3,0.9-4.2c0-0.8,0.1-1.5,0.3-2.2c0.5-1.5,1.4-2.5,2.7-3.3c0.6-0.3,1.6-0.5,2.7-0.5c1,0,2,0.2,2.8,0.6
	c1.3,0.7,2.1,1.8,2.7,3.2c0.3,0.7,0.3,1.4,0.3,2.2c0,1.1,0,2.5,0.9,4.2c0.2,0.5,0.5,0.9,0.7,1.3c0.6,1,1.1,1.9,1.3,2.7
	C157.3,194.7,157.3,195.1,157.1,195.3L157.1,195.3z M179.8,194.1c-0.2-1-0.8-1.9-1.4-2.9c-0.2-0.5-0.5-0.9-0.7-1.3
	c-0.8-1.6-0.8-2.8-0.8-3.9c0-0.8,0-1.6-0.3-2.5c-0.6-1.7-1.5-2.8-3.1-3.7c-0.3-0.2-0.6-0.3-0.9-0.4v-0.3c0-1.2-1-2.1-2.1-2.1
	s-2,0.9-2,2.1v0.3c-0.4,0.1-0.7,0.2-1,0.4c-1.5,0.9-2.4,2.1-3.1,3.7c-0.3,0.9-0.3,1.7-0.3,2.5c0,1.1,0,2.3-0.8,3.8
	c-0.2,0.5-0.5,0.9-0.7,1.3c-0.6,1-1.2,2-1.4,2.9c-0.2,1,0,1.5,0.3,1.8c0.3,0.4,0.7,0.6,1.3,0.6h5c0,1.4,1.2,2.6,2.7,2.6
	s2.7-1.2,2.7-2.6h5.1c0.5,0,1-0.2,1.2-0.5C179.8,195.6,180,195.1,179.8,194.1L179.8,194.1z M169.2,179.1c0-0.6,0.5-1.2,1.2-1.2
	c0.6,0,1.2,0.5,1.2,1.2v0.1c-0.8-0.1-1.7-0.1-2.4,0V179.1z M170.5,198.2c-1,0-1.9-0.8-1.9-1.8h3.9
	C172.4,197.4,171.5,198.2,170.5,198.2z M179,195.3c-0.2,0.3-0.5,0.3-0.7,0.3h-15.6c-0.2,0-0.5-0.1-0.7-0.3s-0.2-0.6-0.1-1.1
	c0.2-0.9,0.7-1.8,1.3-2.7c0.2-0.4,0.5-0.9,0.7-1.3c0.9-1.7,0.9-3,0.9-4.2c0-0.8,0.1-1.5,0.3-2.2c0.5-1.5,1.4-2.5,2.6-3.3
	c0.6-0.3,1.6-0.5,2.6-0.5s2,0.2,2.7,0.6c1.3,0.7,2.1,1.8,2.6,3.2c0.3,0.7,0.3,1.4,0.3,2.2c0,1.1,0,2.5,0.9,4.2
	c0.2,0.5,0.5,0.9,0.7,1.3c0.6,1,1.1,1.9,1.3,2.7C179.2,194.7,179.2,195.1,179,195.3z"/>
<circle class="st1" cx="174.1" cy="186.9" r="5.9"/>
<path class="st0" d="M173.8,184.7l-1.5,0.7L172,184l2.1-0.9h1.5v7.7h-1.7v-6.1H173.8z M49.5,183l3.4,6.9l7.6,1.1l-5.5,5.4l1.3,7.6
	l-6.8-3.6l-6.8,3.6l1.3-7.6l-5.5-5.4l7.6-1.1L49.5,183z M27.5,193.5l-11.1-8.2v5.5H5.5v5.4h10.9v5.5L27.5,193.5z M79,202.7l-8.5-8.5
	l3-2.9l5.5,5.5l12.5-12.5l3,2.9L79,202.7z M124,188l-3-3l-5.5,5.5L110,185l-3,3l5.5,5.5L107,199l3,3l5.5-5.5l5.5,5.5l3-3l-5.5-5.5
	L124,188z M139.8,38.7v-5v-5c0-5.3,0.7-9.5,2.3-12.6c1.5-3,4.2-4.5,8-4.7l1.9,4c-2.1,0.2-3.6,1.2-4.4,3c-0.8,1.8-1.2,4.7-1.2,8.7
	h5.5v11.6C151.9,38.7,139.8,38.7,139.8,38.7z M158,38.7v-5v-5c0-5.3,0.7-9.5,2.3-12.6c1.5-3,4.2-4.5,8-4.7l1.9,4
	c-2.1,0.2-3.6,1.2-4.4,3c-0.8,1.8-1.2,4.7-1.2,8.7h5.6v11.6C170.2,38.7,158,38.7,158,38.7z"/>
<path class="st2" d="M159.7,109.1h-19.3c-3.5,0-6.3-2.8-6.3-6.3V61.2c0-3.5,2.8-6.3,6.3-6.3h19.4c3.5,0,6.2,2.8,6.2,6.3v41.6
	C165.9,106.3,163.1,109.1,159.7,109.1L159.7,109.1z M140.4,57.9c-1.8,0-3.3,1.5-3.3,3.3v41.6c0,1.8,1.5,3.3,3.3,3.3h19.3
	c1.8,0,3.3-1.5,3.3-3.3V61.2c0-1.9-1.4-3.3-3.2-3.3L140.4,57.9L140.4,57.9z"/>
<path class="st2" d="M153.7,59.4h2.1c0.4,0,0.8,0.3,0.8,0.8s-0.3,0.8-0.8,0.8h-2.1c-0.4,0-0.8-0.3-0.8-0.8S153.3,59.4,153.7,59.4z
	 M144.4,59.4h6.3c0.4,0,0.8,0.3,0.8,0.8s-0.3,0.8-0.8,0.8h-6.3c-0.4,0-0.8-0.3-0.8-0.8S144,59.4,144.4,59.4z"/>
<circle class="st2" cx="150.2" cy="102.1" r="2.1"/>
<path class="st2" d="M157,98.1h-13.9c-2,0-3.6-1.8-3.6-3.9V67.6c0-2.2,1.6-3.9,3.6-3.9H157c2,0,3.6,1.8,3.6,3.9v26.6
	C160.6,96.3,159,98.1,157,98.1z M143.1,66.7c-0.4,0-0.6,0.4-0.6,0.9v26.6c0,0.5,0.3,0.9,0.6,0.9H157c0.4,0,0.6-0.4,0.6-0.9V67.6
	c0-0.5-0.3-0.9-0.6-0.9H143.1z"/>
<path class="st3" d="M109.1,124.4H70.9c-2.9,0-5.3,2.4-5.3,5.3v24.4c0,0.7,0.1,1.4,0.4,2l-0.1,0.1l0.6,0.8l0.1,0.1l0.1,0.2l0.3,0.3
	c0.1,0.1,0.2,0.3,0.4,0.4c0.1,0.1,0.3,0.2,0.4,0.4l0.2,0.2c0.2,0.2,0.5,0.3,0.7,0.4c0.1,0,0.1,0.1,0.2,0.1c0.3,0.1,0.6,0.2,0.8,0.3
	h0.1c0.3,0.1,0.6,0.1,1,0.1h38.1c0.3,0,0.6,0,0.9-0.1h0.2c0.3-0.1,0.5-0.1,0.8-0.2c0.1,0,0.2-0.1,0.3-0.1l0.6-0.3
	c0.1-0.1,0.2-0.1,0.3-0.2c0.2-0.1,0.3-0.2,0.5-0.4l0.2-0.2c0.2-0.2,0.3-0.3,0.4-0.5l0.1-0.1c0,0,0-0.1,0.1-0.1l0.6-0.9l0.1-0.4
	c0.2-0.6,0.4-1.2,0.4-1.9v-24.3C114.4,126.8,112,124.4,109.1,124.4z M68.6,129.7c0-1.3,1-2.3,2.3-2.3H109c1.3,0,2.3,1,2.3,2.3v1.9
	l-13.2,9.5l-8.1,5.8l-8.1-5.8l-13.3-9.6L68.6,129.7L68.6,129.7z M68.6,135.2l11.1,8l-11.1,10.4V135.2z M70.9,156.3h-0.6h-0.1
	l12-11.2l7.8,5.6l7.8-5.6l11.9,11.2c-0.1,0-0.1,0-0.2,0.1H70.9V156.3z M111.4,153.5l-11-10.3l11-7.9V153.5z M159.7,169h-19.3
	c-3.5,0-6.3-2.8-6.3-6.3v-41.6c0-3.5,2.8-6.3,6.3-6.3h19.4c3.5,0,6.2,2.8,6.2,6.3v41.6C165.9,166.1,163.1,169,159.7,169L159.7,169z
	 M140.4,117.8c-1.8,0-3.3,1.5-3.3,3.3v41.6c0,1.8,1.5,3.3,3.3,3.3h19.3c1.8,0,3.3-1.5,3.3-3.3v-41.6c0-1.9-1.4-3.3-3.2-3.3
	L140.4,117.8L140.4,117.8z"/>
<path class="st3" d="M153.7,119.3h2.1c0.4,0,0.8,0.3,0.8,0.8s-0.3,0.8-0.8,0.8h-2.1c-0.4,0-0.8-0.3-0.8-0.8S153.3,119.3,153.7,119.3
	z M144.4,119.3h6.3c0.4,0,0.8,0.3,0.8,0.8s-0.3,0.8-0.8,0.8h-6.3c-0.4,0-0.8-0.3-0.8-0.8S144,119.3,144.4,119.3z"/>
<circle class="st3" cx="150.2" cy="162" r="2.1"/>
<path class="st3" d="M157,158h-13.9c-2,0-3.6-1.8-3.6-3.9v-26.6c0-2.2,1.6-3.9,3.6-3.9H157c2,0,3.6,1.8,3.6,3.9V154
	C160.6,156.2,159,158,157,158z M143.1,126.5c-0.4,0-0.6,0.4-0.6,0.9V154c0,0.5,0.3,0.9,0.6,0.9H157c0.4,0,0.6-0.4,0.6-0.9v-26.6
	c0-0.5-0.3-0.9-0.6-0.9H143.1z"/>
<g>
	<path class="st4" d="M10.2,164.4c-0.7,0-1.3-0.3-1.8-0.8c-0.7-0.7-0.9-1.7-0.6-2.6l2.8-8.4c-1.9-3.2-2.9-6.9-2.9-10.8v-1
		C8.2,128.9,18,119.6,30,119.6c12.2,0,22,9.4,22.3,21.5v0.7c0,12.2-10,22.1-22.2,22.1c-3.7,0-7.1-0.8-10.3-2.5l-8.8,2.8
		C10.7,164.3,10.5,164.4,10.2,164.4z M30,122.6c-10.4,0-18.8,8-19.2,18.3v0.9c0,3.5,1,7,2.8,9.8l0.4,0.6l-3,8.9l9.2-2.9l0.6,0.3
		c2.8,1.6,6,2.4,9.4,2.4c10.6,0,19.2-8.6,19.2-19.1v-0.7C49,130.8,40.5,122.6,30,122.6z"/>
	<path class="st5" d="M41.6,149.9c-0.5,1.2-2.8,2.5-3.8,2.6c-0.9,0.2-0.9,0.9-6.8-1.4c-5.8-2.2-9.4-8.1-9.7-8.4
		c-0.2-0.3-1.4-1.8-2-3.8c-0.2-0.6-0.3-1.2-0.3-1.8c0-2.8,1.5-4.1,2-4.8c0.6-0.6,1.2-0.8,1.5-0.8h1.1c0.3,0,0.8-0.2,1.2,0.9
		c0.5,1.1,1.5,3.8,1.7,4.1c0.2,0.2,0.2,0.6,0,0.9c-0.2,0.2-0.2,0.5-0.3,0.6c0,0.2-0.2,0.2-0.2,0.3l-0.9,0.9
		c-0.3,0.2-0.6,0.5-0.3,1.1c0.3,0.5,1.4,2.3,3.1,3.8c2.2,1.8,4,2.5,4.6,2.8c0.6,0.3,0.9,0.2,1.2-0.2c0.3-0.3,1.5-1.5,1.8-2.2
		c0.3-0.6,0.8-0.5,1.2-0.3c0.5,0.2,3.2,1.5,3.8,1.8c0.5,0.3,0.9,0.5,1.2,1.1C42.1,147.4,42.1,148.5,41.6,149.9L41.6,149.9z"/>
</g>
<g>
	<path class="st2" d="M10.2,104.4c-0.7,0-1.3-0.3-1.8-0.8c-0.7-0.7-0.9-1.7-0.6-2.6l2.8-8.4c-1.9-3.2-2.9-6.9-2.9-10.8v-1
		C8.2,68.9,18,59.6,30,59.6c12.2,0,22,9.4,22.3,21.5v0.7c0,12.2-10,22.1-22.2,22.1c-3.7,0-7.1-0.8-10.3-2.5l-8.8,2.8
		C10.7,104.3,10.5,104.4,10.2,104.4z M30,62.6c-10.4,0-18.8,8-19.2,18.3v0.9c0,3.5,1,7,2.8,9.8l0.4,0.6l-3,8.9l9.2-2.9l0.6,0.3
		c2.8,1.6,6,2.4,9.4,2.4c10.6,0,19.2-8.6,19.2-19.1v-0.7C49,70.8,40.5,62.6,30,62.6z"/>
	<path class="st6" d="M41.6,89.9c-0.5,1.2-2.8,2.5-3.8,2.6c-0.9,0.2-0.9,0.9-6.8-1.4c-5.8-2.2-9.4-8.1-9.7-8.4
		c-0.2-0.3-1.4-1.8-2-3.8c-0.2-0.6-0.3-1.2-0.3-1.8c0-2.8,1.5-4.1,2-4.8c0.6-0.6,1.2-0.8,1.5-0.8h1.1c0.3,0,0.8-0.2,1.2,0.9
		c0.5,1.1,1.5,3.8,1.7,4.1c0.2,0.2,0.2,0.6,0,0.9c-0.2,0.2-0.2,0.5-0.3,0.6c0,0.2-0.2,0.2-0.2,0.3l-0.9,0.9
		c-0.3,0.2-0.6,0.5-0.3,1.1c0.3,0.5,1.4,2.3,3.1,3.8c2.2,1.8,4,2.5,4.6,2.8c0.6,0.3,0.9,0.2,1.2-0.2c0.3-0.3,1.5-1.5,1.8-2.2
		c0.3-0.6,0.8-0.5,1.2-0.3c0.5,0.2,3.2,1.5,3.8,1.8c0.5,0.3,0.9,0.5,1.2,1.1C42.1,87.4,42.1,88.5,41.6,89.9z"/>
</g>
<g>
	<path class="st2" d="M5.1,368.3c0.8,0,1.4-0.6,1.4-1.4v-6.6c0-1.6,1.3-2.9,2.9-2.9h7.4c1.6,0,2.9,1.3,2.9,2.9v5.1
		c0,0.8,0.6,1.4,1.4,1.4s1.4-0.6,1.4-1.4v-5.1c0-2.5-1.6-4.6-3.9-5.3c0.8-1,1.3-2.3,1.3-3.8c0-3.4-2.8-6.2-6.2-6.2s-6.2,2.8-6.2,6.2
		c0,1.3,0.4,2.5,1.1,3.6c-2.7,0.4-4.7,2.7-4.7,5.5v6.6C3.7,367.7,4.3,368.3,5.1,368.3L5.1,368.3z M13.5,347.7c1.9,0,3.5,1.6,3.5,3.5
		s-1.6,3.5-3.5,3.5s-3.5-1.6-3.5-3.5S11.6,347.7,13.5,347.7z M36.9,366.8c0.8,0,1.4-0.6,1.4-1.4v-5.1c0-1.6,1.3-2.9,2.9-2.9h7.4
		c1.6,0,2.9,1.3,2.9,2.9v5.1c0,0.8,0.6,1.4,1.4,1.4c0.8,0,1.4-0.6,1.4-1.4v-5.1c0-2.5-1.6-4.6-3.9-5.3c0.8-1,1.3-2.3,1.3-3.8
		c0-3.4-2.8-6.2-6.2-6.2s-6.2,2.8-6.2,6.2c0,1.3,0.4,2.5,1.1,3.6c-2.7,0.4-4.7,2.7-4.7,5.5v5.1C35.5,366.1,36.1,366.8,36.9,366.8
		L36.9,366.8z M45.4,347.7c1.9,0,3.5,1.6,3.5,3.5s-1.6,3.5-3.5,3.5s-3.5-1.6-3.5-3.5S43.4,347.7,45.4,347.7z M82.1,355
		c0.8-1,1.3-2.3,1.3-3.8c0-3.4-2.8-6.2-6.2-6.2c-3.4,0-6.2,2.8-6.2,6.2c0,1.3,0.4,2.5,1.1,3.6c-2.7,0.4-4.7,2.7-4.7,5.5v5.1
		c0,0.8,0.6,1.4,1.4,1.4s1.4-0.6,1.4-1.4v-5.1c0-1.6,1.3-2.9,2.9-2.9h7.4c1.6,0,2.9,1.3,2.9,2.9v6.6c0,0.8,0.6,1.4,1.4,1.4
		s1.4-0.6,1.4-1.4v-6.6C86,357.8,84.4,355.7,82.1,355L82.1,355z M77.2,347.7c1.9,0,3.5,1.6,3.5,3.5s-1.6,3.5-3.5,3.5
		s-3.5-1.6-3.5-3.5S75.3,347.7,77.2,347.7z M18.5,393.2c0.8-1,1.3-2.3,1.3-3.8c0-3.4-2.8-6.2-6.2-6.2s-6.2,2.8-6.2,6.2
		c0,1.3,0.4,2.5,1.1,3.6c-2.7,0.4-4.7,2.7-4.7,5.5v5.1c0,0.8,0.6,1.4,1.4,1.4s1.4-0.6,1.4-1.4v-5.1c0-1.6,1.3-2.9,2.9-2.9h7.4
		c1.6,0,2.9,1.3,2.9,2.9v5.1c0,0.8,0.6,1.4,1.4,1.4s1.4-0.6,1.4-1.4v-5.1C22.3,396,20.7,393.9,18.5,393.2L18.5,393.2z M13.5,385.9
		c1.9,0,3.5,1.6,3.5,3.5s-1.6,3.5-3.5,3.5s-3.5-1.6-3.5-3.5S11.6,385.9,13.5,385.9z M50.3,393.2c0.8-1,1.3-2.3,1.3-3.8
		c0-3.4-2.8-6.2-6.2-6.2s-6.2,2.8-6.2,6.2c0,1.3,0.4,2.5,1.1,3.6c-2.7,0.4-4.7,2.7-4.7,5.5v5.1c0,0.8,0.6,1.4,1.4,1.4
		c0.8,0,1.4-0.6,1.4-1.4v-5.1c0-1.6,1.3-2.9,2.9-2.9h7.4c1.6,0,2.9,1.3,2.9,2.9v5.1c0,0.8,0.6,1.4,1.4,1.4c0.8,0,1.4-0.6,1.4-1.4
		v-5.1C54.2,396,52.5,393.9,50.3,393.2L50.3,393.2z M45.4,385.9c1.9,0,3.5,1.6,3.5,3.5s-1.6,3.5-3.5,3.5s-3.5-1.6-3.5-3.5
		S43.4,385.9,45.4,385.9z M82.1,393.2c0.8-1,1.3-2.3,1.3-3.8c0-3.4-2.8-6.2-6.2-6.2c-3.4,0-6.2,2.8-6.2,6.2c0,1.3,0.4,2.5,1.1,3.6
		c-2.7,0.4-4.7,2.7-4.7,5.5v5.1c0,0.8,0.6,1.4,1.4,1.4s1.4-0.6,1.4-1.4v-5.1c0-1.6,1.3-2.9,2.9-2.9h7.4c1.6,0,2.9,1.3,2.9,2.9v5.1
		c0,0.8,0.6,1.4,1.4,1.4s1.4-0.6,1.4-1.4v-5.1C86,396,84.4,393.9,82.1,393.2L82.1,393.2z M77.2,385.9c1.9,0,3.5,1.6,3.5,3.5
		s-1.6,3.5-3.5,3.5s-3.5-1.6-3.5-3.5S75.3,385.9,77.2,385.9z M35.9,384.7c0,0.8,0.6,1.4,1.4,1.4c0.8,0,1.4-0.6,1.4-1.4v-5.4
		c0-2.5-1.6-4.6-3.9-5.3c0.8-1,1.3-2.3,1.3-3.8c0-3.4-2.8-6.2-6.2-6.2s-6.2,2.8-6.2,6.2c0,1.3,0.4,2.5,1.1,3.6
		c-2.7,0.4-4.7,2.7-4.7,5.5v5.5c0,0.8,0.6,1.4,1.4,1.4s1.4-0.6,1.4-1.4v-5.5c0-1.6,1.3-2.9,2.9-2.9H33c1.6,0,2.9,1.3,2.9,2.9V384.7
		L35.9,384.7z M29.8,366.8c1.9,0,3.5,1.6,3.5,3.5s-1.6,3.5-3.5,3.5s-3.5-1.6-3.5-3.5C26.3,368.3,27.9,366.8,29.8,366.8z M68.3,386.2
		c0.8,0,1.4-0.6,1.4-1.4v-5.5c0-2.5-1.6-4.6-3.9-5.3c0.8-1,1.3-2.3,1.3-3.8c0-3.4-2.8-6.2-6.2-6.2c-3.4,0-6.2,2.8-6.2,6.2
		c0,1.3,0.4,2.5,1.1,3.6c-2.7,0.4-4.7,2.7-4.7,5.5v5.4c0,0.8,0.6,1.4,1.4,1.4c0.8,0,1.4-0.6,1.4-1.4v-5.4c0-1.6,1.3-2.9,2.9-2.9h7.4
		c1.6,0,2.9,1.3,2.9,2.9v5.5C67,385.6,67.6,386.2,68.3,386.2L68.3,386.2z M60.9,366.7c1.9,0,3.5,1.6,3.5,3.5s-1.6,3.5-3.5,3.5
		s-3.5-1.6-3.5-3.5S59,366.7,60.9,366.7z"/>
</g>
<g>
	<path class="st2" d="M86.1,272.7l-14.8-14.8c2.7-3.1,4.3-7.1,4.3-11.4c0-4.2-1.5-8-3.9-10.9l6.5-6c0.7,0.4,1.4,0.6,2.2,0.6
		c2.6,0,4.7-2.1,4.7-4.7s-2.1-4.7-4.7-4.7s-4.7,2.1-4.7,4.7c0,0.8,0.2,1.6,0.6,2.3l-6.4,5.9c-3.1-2.8-7.1-4.5-11.6-4.5
		c-6,0-11.2,3-14.3,7.6l-5.4-2.8c0.1-0.3,0.1-0.6,0.1-0.9c0-2.6-2.1-4.7-4.7-4.7s-4.7,2.1-4.7,4.7c0,1.2,0.5,2.4,1.3,3.2l-16.5,25.3
		c-0.2,0-0.5-0.1-0.8-0.1c-2.6,0-4.7,2.1-4.7,4.7s2.1,4.7,4.7,4.7s4.7-2.1,4.7-4.7c0-1.4-0.6-2.6-1.5-3.5l16.4-25.1
		c0.4,0.1,0.7,0.2,1.1,0.2c1.3,0,2.5-0.6,3.4-1.5l5.3,2.8c-1.1,2.2-1.7,4.7-1.7,7.4c0,9.6,7.8,17.3,17.3,17.3c4.2,0,8.1-1.5,11.1-4
		l14.8,14.8c0.3,0.3,0.6,0.4,0.9,0.4s0.7-0.1,0.9-0.4C86.6,274.1,86.6,273.2,86.1,272.7z M13.3,268.2c-1.1,0-2-0.9-2-2s0.9-2,2-2
		s2,0.9,2,2S14.4,268.2,13.3,268.2z M34,235.1c-1.1,0-2-0.9-2-2s0.9-2,2-2s2,0.9,2,2S35.1,235.1,34,235.1z M80.4,223.3
		c1.1,0,2,0.9,2,2s-0.9,2-2,2s-2-0.9-2-2C78.3,224.3,79.3,223.3,80.4,223.3z M58.3,231.8c3.7,0,7,1.4,9.6,3.6l-6.7,6.3
		c-0.8-0.6-1.8-1-2.9-1c-1.5,0-2.8,0.7-3.6,1.7l-8.3-4.4C49,234.3,53.4,231.8,58.3,231.8L58.3,231.8z M43.7,246.5
		c0-2.2,0.5-4.3,1.4-6.1l8.6,4.6c0,0.2-0.1,0.3-0.1,0.5c0,2.6,2.1,4.7,4.7,4.7s4.7-2.1,4.7-4.7c0-0.5-0.1-1-0.3-1.5l7-6.5
		c2,2.5,3.2,5.7,3.2,9.1c0,8.1-6.6,14.7-14.7,14.7C50.2,261.1,43.7,254.6,43.7,246.5L43.7,246.5z M25.3,225.9
		c0-6-4.9-10.9-10.9-10.9s-10.9,4.9-10.9,10.9s4.9,10.9,10.9,10.9S25.3,231.9,25.3,225.9z M6.1,225.9c0-4.6,3.7-8.3,8.3-8.3
		s8.3,3.7,8.3,8.3s-3.7,8.3-8.3,8.3S6.1,230.5,6.1,225.9z"/>
	<path class="st2" d="M15.6,231.6v-1.2c0.6-0.2,1.1-0.5,1.5-0.9c0.5-0.5,0.7-1.2,0.7-2c0-0.3,0-0.6-0.1-0.9
		c-0.1-0.3-0.2-0.6-0.4-0.8c-0.2-0.2-0.3-0.4-0.5-0.5c-0.2-0.2-0.4-0.3-0.7-0.4c-0.3-0.1-0.5-0.2-0.6-0.3s-0.3-0.1-0.6-0.3
		c-0.2-0.1-0.4-0.1-0.5-0.2c-0.1,0-0.2-0.1-0.4-0.2s-0.3-0.1-0.3-0.2c-0.1,0-0.1-0.1-0.1-0.2v-0.2c0-0.2,0.1-0.4,0.2-0.4
		c0.1-0.1,0.3-0.2,0.6-0.2c0.5,0,0.9,0.2,1.1,0.7l0.1,0.3l2-0.7l-0.1-0.3c-0.1-0.5-0.4-1-0.8-1.3c-0.3-0.3-0.7-0.5-1.1-0.7v-1.1
		h-2.1v1.1c-0.6,0.2-1.1,0.4-1.4,0.9c-0.4,0.5-0.6,1-0.6,1.7c0,0.4,0.1,0.7,0.2,1c0.1,0.3,0.3,0.5,0.4,0.7c0.2,0.2,0.4,0.4,0.7,0.5
		c0.3,0.2,0.5,0.3,0.7,0.4c0.2,0.1,0.4,0.2,0.7,0.3s0.5,0.2,0.7,0.3c0.1,0.1,0.3,0.1,0.5,0.3c0.1,0.1,0.3,0.2,0.3,0.3
		c0.1,0.1,0.1,0.2,0.1,0.4c0,0.3-0.1,0.5-0.3,0.6c-0.4,0.3-1.1,0.3-1.6-0.1c-0.3-0.2-0.5-0.5-0.6-0.8l-0.1-0.3l-2,0.7l0.1,0.3
		c0.2,0.6,0.5,1.1,1,1.6c0.4,0.4,0.8,0.6,1.4,0.8v1.2L15.6,231.6L15.6,231.6z"/>
</g>
<g>
	<path class="st2" d="M59.6,285.8H29.9c-1.6,0-2.9,1.3-2.9,2.9v14.8c0,1.6,1.3,2.9,2.9,2.9h29.6c1.6,0,2.9-1.3,2.9-2.9v-14.8
		C62.5,287.1,61.2,285.8,59.6,285.8z M59.8,303.4c0,0.1-0.1,0.2-0.2,0.2H29.9c-0.1,0-0.2-0.1-0.2-0.2v-14.8c0-0.1,0.1-0.2,0.2-0.2
		h29.6c0.1,0,0.2,0.1,0.2,0.2L59.8,303.4L59.8,303.4z M32.8,313.1h23.3c0.7,0,1.3-0.6,1.3-1.3s-0.6-1.3-1.3-1.3H32.8
		c-0.7,0-1.3,0.6-1.3,1.3S32,313.1,32.8,313.1z M32.8,319.2h18.4c0.7,0,1.3-0.6,1.3-1.3s-0.6-1.3-1.3-1.3H32.8
		c-0.7,0-1.3,0.6-1.3,1.3S32,319.2,32.8,319.2z"/>
	<path class="st2" d="M84.6,285.8H71.1c-0.1,0-0.3,0-0.4,0.1V283c0-1.6-1.3-2.9-2.9-2.9H21.9c-1.6,0-2.9,1.3-2.9,2.9v2.9H5.4
		c-1.8,0-3.3,1.3-3.3,2.9v42.7c0,1.6,1.5,2.9,3.3,2.9h13.7v2.9c0,1.6,1.3,2.9,2.9,2.9h45.8c1.6,0,2.9-1.3,2.9-2.9v-2.9
		c0.1,0,0.3,0.1,0.4,0.1h13.6c1.8,0,3.3-1.3,3.3-2.9v-42.7C87.9,287.1,86.5,285.8,84.6,285.8z M18.9,331.6H5.4
		c-0.4,0-0.6-0.2-0.6-0.2v-42.6c0-0.1,0.3-0.3,0.6-0.3h13.7v10.9H9.7c-0.7,0-1.3,0.6-1.3,1.3c0,0.7,0.6,1.3,1.3,1.3H19v1.7h-7.4
		c-0.7,0-1.3,0.6-1.3,1.3s0.6,1.3,1.3,1.3H19v25.2C19,331.6,19,331.6,18.9,331.6L18.9,331.6z M68,337.1c0,0.1-0.1,0.2-0.2,0.2H21.9
		c-0.1,0-0.2-0.1-0.2-0.2v-54.2c0-0.1,0.1-0.2,0.2-0.2h45.8c0.1,0,0.2,0.1,0.2,0.2v54.2H68z M84.6,331.6H71.1c-0.1,0-0.3,0-0.4,0.1
		v-25.4c0.1,0,0.3,0.1,0.4,0.1h7.3c0.7,0,1.3-0.6,1.3-1.3s-0.6-1.3-1.3-1.3h-7.3c-0.1,0-0.3,0-0.4,0.1V302c0.1,0,0.3,0.1,0.4,0.1
		h9.2c0.7,0,1.3-0.6,1.3-1.3c0-0.7-0.6-1.3-1.3-1.3h-9.2c-0.1,0-0.3,0-0.4,0.1v-11c0.1,0,0.3,0.1,0.4,0.1h13.6
		c0.4,0,0.6,0.2,0.6,0.2v42.6C85.3,331.4,85,331.6,84.6,331.6L84.6,331.6z"/>
	<path class="st2" d="M56.1,324.6l-23.3-0.2c-0.7,0-1.3,0.6-1.3,1.3c0,0.7,0.6,1.3,1.3,1.3l23.3,0.2c0.7,0,1.3-0.6,1.3-1.3
		C57.4,325.2,56.8,324.6,56.1,324.6z M51.2,330.7l-18.4-0.1c-0.7,0-1.3,0.6-1.3,1.3c0,0.7,0.6,1.3,1.3,1.3l18.4,0.1
		c0.7,0,1.3-0.6,1.3-1.3C52.5,331.3,51.9,330.7,51.2,330.7z M48.1,295l-5.6-3.4c-0.5-0.2-1.1-0.2-1.5,0.1c-0.4,0.2-0.6,0.6-0.6,1
		v6.8c0,0.4,0.2,0.8,0.6,1c0.3,0.2,0.5,0.2,0.8,0.2c0.2,0,0.5-0.1,0.7-0.2l5.5-3.4c0.5-0.2,0.8-0.6,0.8-1.1
		C48.8,295.6,48.5,295.2,48.1,295z M28.3,319.7c1,0,1.7-0.8,1.7-1.7c0-1-0.8-1.7-1.7-1.7c-1,0-1.7,0.8-1.7,1.7
		C26.6,318.9,27.4,319.7,28.3,319.7z M28.3,313.3c1,0,1.7-0.8,1.7-1.7c0-1-0.8-1.7-1.7-1.7c-1,0-1.7,0.8-1.7,1.7
		C26.6,312.5,27.4,313.3,28.3,313.3z M28.3,330.4c-1,0-1.7,0.8-1.7,1.7c0,1,0.8,1.7,1.7,1.7c0.5,0,0.9-0.2,1.2-0.5
		c0.3-0.3,0.5-0.8,0.5-1.2c0-0.5-0.2-0.9-0.5-1.2S28.8,330.4,28.3,330.4z M28.4,324C28.4,324,28.3,324,28.4,324
		c-1,0-1.7,0.8-1.7,1.7c0,1,0.8,1.7,1.7,1.7c0.5,0,0.9-0.2,1.2-0.5c0.3-0.3,0.5-0.8,0.5-1.2c0-0.5-0.2-0.9-0.5-1.2
		C29.3,324.2,28.8,324,28.4,324z"/>
</g>
<g>
	<path class="st0" d="M52.7,19H51v-5.8c0-0.9-0.1-1.6-0.2-2c-0.1-0.4-0.3-0.8-0.7-1.1s-0.9-0.4-1.5-0.4s-1.2,0.2-1.7,0.6
		c-0.5,0.4-0.9,0.9-1.1,1.6c-0.2,0.7-0.3,1.7-0.3,3V19H44v-5.4c0-1.1-0.1-1.8-0.2-2.3c-0.1-0.5-0.4-0.8-0.7-1.1
		c-0.4-0.3-0.8-0.4-1.4-0.4c-0.6,0-1.1,0.2-1.6,0.5c-0.5,0.4-0.9,0.8-1.1,1.4c-0.2,0.6-0.4,1.5-0.4,2.9V19H37V8.4h1.6v1.5
		c0.9-1.2,2-1.8,3.4-1.8c0.7,0,1.4,0.2,2,0.6c0.6,0.4,1,1,1.3,1.7c0.4-0.7,1-1.3,1.6-1.7c0.7-0.4,1.4-0.6,2.1-0.6
		c1,0,1.9,0.4,2.6,1.1c0.7,0.7,1.1,2.1,1.1,4C52.7,13.2,52.7,19,52.7,19z M55.9,10c1-1.3,2.3-1.9,3.9-1.9c1.5,0,2.8,0.5,3.9,1.6
		c1.1,1.1,1.6,2.4,1.6,4c0,1.5-0.5,2.9-1.6,4s-2.3,1.6-3.8,1.6s-2.8-0.6-4-1.9v5.3h-1.6V8.4h1.6C55.9,8.4,55.9,10,55.9,10z
		 M59.8,17.9c1.1,0,2-0.4,2.8-1.2c0.8-0.8,1.2-1.8,1.2-2.9s-0.4-2.1-1.2-2.9c-0.8-0.8-1.7-1.2-2.8-1.2s-2,0.4-2.8,1.2
		s-1.1,1.8-1.1,2.9c0,1.2,0.4,2.1,1.2,2.9C57.7,17.5,58.7,17.9,59.8,17.9z M75.3,8.6L74.5,10c-0.2-0.1-0.4-0.2-0.6-0.2
		c-0.4,0-0.8,0.2-1.1,0.6c-0.3,0.4-0.6,0.9-0.7,1.6c-0.2,0.6-0.2,1.8-0.2,3.5V19h-1.6V8.4h1.6v1.1c0.3-0.5,0.7-0.8,1-1.1
		c0.3-0.2,0.7-0.3,1.1-0.3C74.3,8.1,74.8,8.3,75.3,8.6z M90.9,16.8c-0.6,0.8-1.3,1.4-2.2,1.9c-0.9,0.4-1.9,0.6-2.9,0.6
		c-1.6,0-3-0.5-4.1-1.6s-1.6-2.4-1.6-3.9c0-1.6,0.5-2.9,1.6-4s2.5-1.7,4.3-1.7c1,0,2,0.2,2.9,0.7s1.6,1.1,2,1.9l-1.3,0.8
		c-0.9-1.2-2.2-1.8-3.7-1.8c-1.2,0-2.2,0.4-3,1.2s-1.2,1.7-1.2,2.9c0,1.1,0.4,2.1,1.2,2.9c0.8,0.8,1.8,1.2,3,1.2
		c1.5,0,2.7-0.6,3.7-1.9C89.6,16,90.9,16.8,90.9,16.8z M101.8,19h-1.6v-1.6c-1,1.2-2.3,1.9-3.7,1.9c-0.8,0-1.5-0.2-2.1-0.6
		s-1.1-0.9-1.4-1.6s-0.5-1.8-0.5-3.2V8.4h1.6v5c0,1.2,0.1,2,0.2,2.4c0.1,0.4,0.3,0.8,0.5,1.1c0.2,0.3,0.5,0.5,0.8,0.7
		c0.3,0.1,0.7,0.2,1.2,0.2s0.9-0.1,1.4-0.3c0.5-0.2,0.8-0.6,1.2-1c0.3-0.4,0.5-0.9,0.7-1.3c0.1-0.5,0.2-1.4,0.2-2.8v-4h1.6L101.8,19
		L101.8,19z M109.9,9.7l-1,1.1c-0.8-0.7-1.5-1.1-2.1-1.1c-0.4,0-0.7,0.1-1,0.4c-0.3,0.3-0.4,0.6-0.4,0.9c0,0.4,0.2,0.7,0.5,1
		s0.8,0.6,1.6,1s1.4,0.9,1.8,1.3c0.4,0.5,0.6,1.1,0.6,1.8c0,0.9-0.3,1.7-0.9,2.3c-0.6,0.6-1.4,0.9-2.3,0.9c-1.3,0-2.3-0.5-3.2-1.6
		l1-1.1c0.7,0.8,1.4,1.2,2.1,1.2c0.5,0,0.9-0.2,1.3-0.5c0.3-0.3,0.5-0.7,0.5-1.1c0-0.4-0.2-0.8-0.5-1.1s-0.9-0.6-1.6-1
		c-0.8-0.4-1.4-0.8-1.7-1.3c-0.4-0.5-0.6-1.1-0.6-1.9c0-0.8,0.3-1.4,0.8-2c0.6-0.5,1.3-0.8,2.2-0.8C107.9,8.1,108.8,8.7,109.9,9.7z
		 M68.2,19h-1.6V8.4h1.6V19z M67.4,5.3c0.3,0,0.5,0.1,0.7,0.3c0.2,0.2,0.3,0.4,0.3,0.7c0,0.3-0.1,0.5-0.3,0.7
		c-0.2,0.2-0.4,0.3-0.7,0.3c-0.3,0-0.5-0.1-0.7-0.3c-0.2-0.2-0.3-0.4-0.3-0.6s0.1-0.5,0.3-0.6C67,5.4,67.2,5.3,67.4,5.3z M78.4,19
		h-1.6V8.4h1.6V19z M77.6,5.3c0.3,0,0.5,0.1,0.7,0.3c0.2,0.2,0.3,0.4,0.3,0.7c0,0.3-0.1,0.5-0.3,0.7c-0.2,0.2-0.4,0.3-0.7,0.3
		c-0.3,0-0.5-0.1-0.7-0.3c-0.2-0.2-0.3-0.4-0.3-0.6s0.1-0.5,0.3-0.6C77.1,5.4,77.4,5.3,77.6,5.3z M0.3,4.6v18.7c0,0.6,0.5,1,1,1H20
		c0.6,0,1-0.5,1-1V4.6c0-0.6-0.5-1-1-1H1.3C0.8,3.6,0.3,4.1,0.3,4.6z"/>
	<g>
		<path class="st7" d="M7.7,12.9h9.9v2.2H7.7V12.9z"/>
		<path class="st7" d="M15.9,16.7c-0.9,1.7-2.7,2.8-4.8,2.8c-3,0-5.5-2.5-5.5-5.5s2.5-5.5,5.5-5.5c2.1,0,3.9,1.2,4.9,2.9l1.6-1.6
			c-1.4-2.1-3.7-3.5-6.4-3.5C7,6.3,3.5,9.7,3.5,14s3.4,7.7,7.7,7.7c2.7,0,5-1.4,6.4-3.4C17.6,18.3,15.9,16.7,15.9,16.7z"/>
	</g>
</g>
<path class="st0" d="M171.2,215l7.5-7.5c0.2-0.2,0.2-0.5,0-0.7s-0.5-0.2-0.7,0l-7.5,7.5l-7.5-7.5c-0.2-0.2-0.5-0.2-0.7,0
	s-0.2,0.5,0,0.7l7.5,7.5l-7.5,7.5c-0.2,0.2-0.2,0.5,0,0.7c0.1,0.1,0.2,0.1,0.4,0.1s0.3,0,0.4-0.1l7.5-7.5l7.5,7.5
	c0.1,0.1,0.2,0.1,0.4,0.1s0.3,0,0.4-0.1c0.2-0.2,0.2-0.5,0-0.7L171.2,215L171.2,215z M29.9,8.1c-3,0-5.5,2.5-5.5,5.6
	s2.4,5.6,5.5,5.6c2.2,0,4.2-1.4,5-3.4l-1.4-0.7c-0.6,1.5-2,2.6-3.6,2.6c-2.2,0-3.9-1.8-3.9-4s1.8-4,3.9-4c1.8,0,3.2,1.2,3.7,2.9h-6
	V14h7.6v-0.2C35.4,10.7,32.9,8.1,29.9,8.1z"/>
<path class="st2" d="M109.1,64.5H70.9c-2.9,0-5.3,2.4-5.3,5.3v24.4c0,0.7,0.1,1.4,0.4,2l-0.1,0.1l0.6,0.8l0.1,0.1l0.1,0.2l0.3,0.3
	c0.1,0.1,0.2,0.3,0.4,0.4c0.1,0.1,0.3,0.2,0.4,0.4l0.2,0.2c0.2,0.2,0.5,0.3,0.7,0.4c0.1,0,0.1,0.1,0.2,0.1c0.3,0.1,0.6,0.2,0.8,0.3
	h0.1c0.3,0.1,0.6,0.1,1,0.1h38.1c0.3,0,0.6,0,0.9-0.1h0.2c0.3-0.1,0.5-0.1,0.8-0.2c0.1,0,0.2-0.1,0.3-0.1l0.6-0.3
	c0.1-0.1,0.2-0.1,0.3-0.2c0.2-0.1,0.3-0.2,0.5-0.4l0.2-0.2c0.2-0.2,0.3-0.3,0.4-0.5l0.1-0.1c0,0,0-0.1,0.1-0.1l0.6-0.9l-0.1-0.1
	c0.2-0.6,0.4-1.2,0.4-1.9V69.9C114.4,66.9,112,64.5,109.1,64.5z M70.9,67.5H109c1.3,0,2.3,1,2.3,2.3v1.9l-13.2,9.5L90,87l-8-5.8
	l-13.3-9.6v-1.8h-0.1C68.6,68.5,69.6,67.5,70.9,67.5z M68.6,93.7V75.3l11.1,8L68.6,93.7z M109.5,96.6H70.9v-0.1h-0.6h-0.1l12-11.2
	l7.8,5.6l7.8-5.6l11.9,11.2C109.6,96.5,109.6,96.5,109.5,96.6z M111.4,93.6l-11-10.3l11-7.9V93.6z"/>
</svg>
